<svg width="14" height="14" viewBox="0 0 14 14" fill="none" xmlns="http://www.w3.org/2000/svg">
<path d="M10.2053 7L13.6703 3.53497C13.8901 3.31516 14 3.04739 14 2.73366C14 2.41993 13.8901 2.15216 13.6703 1.93234L12.0677 0.329717C11.8478 0.109906 11.5801 0 11.2663 0C10.9526 0 10.6848 0.109906 10.465 0.329717L7 3.79475L3.53497 0.329717C3.31516 0.109906 3.04739 0 2.73366 0C2.41993 0 2.15216 0.109906 1.93234 0.329717L0.329717 1.93234C0.109906 2.15216 0 2.41993 0 2.73366C0 3.04739 0.109906 3.31516 0.329717 3.53497L3.79475 7L0.329717 10.465C0.109906 10.6848 0 10.9526 0 11.2663C0 11.5801 0.109906 11.8478 0.329717 12.0677L1.93234 13.6703C2.15216 13.8901 2.41993 14 2.73366 14C3.04739 14 3.31516 13.8901 3.53497 13.6703L7 10.2053L10.465 13.6703C10.6848 13.8901 10.9516 14 11.2663 14C11.5811 14 11.8478 13.8901 12.0677 13.6703L13.6703 12.0677C13.8901 11.8478 14 11.5801 14 11.2663C14 10.9526 13.8901 10.6848 13.6703 10.465L10.2053 7Z" fill="#B3B3B3"/>
</svg>
